<svg width="135" height="434" viewBox="0 0 135 434" fill="none" xmlns="http://www.w3.org/2000/svg">
<rect width="135" height="434" fill="#1E1E1E"/>
<g id="Desktop - 1" clip-path="url(#clip0_0_1)">
<rect width="1440" height="6406" transform="translate(-484 -1112)" fill="white"/>
<g id="Group 590">
<path id="We Offer Best Services" d="M-27.708 -8.928L-39.42 36H-52.668L-59.836 6.432L-67.26 36H-80.508L-91.9 -8.928H-80.188L-73.724 23.776L-65.724 -8.928H-53.692L-46.012 23.776L-39.484 -8.928H-27.708ZM11.4445 17.568C11.4445 18.592 11.3805 19.6587 11.2525 20.768H-13.5155C-13.3448 22.9867 -12.6408 24.6933 -11.4035 25.888C-10.1235 27.04 -8.56617 27.616 -6.7315 27.616C-4.00083 27.616 -2.10217 26.464 -1.0355 24.16H10.6125C10.0152 26.5067 8.92717 28.6187 7.3485 30.496C5.8125 32.3733 3.87117 33.8453 1.5245 34.912C-0.822165 35.9787 -3.44617 36.512 -6.3475 36.512C-9.84617 36.512 -12.9608 35.7653 -15.6915 34.272C-18.4222 32.7787 -20.5555 30.6453 -22.0915 27.872C-23.6275 25.0987 -24.3955 21.856 -24.3955 18.144C-24.3955 14.432 -23.6488 11.1893 -22.1555 8.416C-20.6195 5.64267 -18.4862 3.50933 -15.7555 2.016C-13.0248 0.522664 -9.88883 -0.224003 -6.3475 -0.224003C-2.8915 -0.224003 0.180502 0.501331 2.8685 1.952C5.5565 3.40267 7.64717 5.472 9.1405 8.16C10.6765 10.848 11.4445 13.984 11.4445 17.568ZM0.244501 14.688C0.244501 12.8107 -0.395499 11.3173 -1.6755 10.208C-2.9555 9.09867 -4.5555 8.544 -6.4755 8.544C-8.31017 8.544 -9.8675 9.07733 -11.1475 10.144C-12.3848 11.2107 -13.1528 12.7253 -13.4515 14.688H0.244501ZM52.0285 36.448C47.8045 36.448 43.9218 35.4667 40.3805 33.504C36.8818 31.5413 34.0872 28.8107 31.9965 25.312C29.9485 21.7707 28.9245 17.8027 28.9245 13.408C28.9245 9.01333 29.9485 5.06666 31.9965 1.568C34.0872 -1.93067 36.8818 -4.66133 40.3805 -6.624C43.9218 -8.58667 47.8045 -9.568 52.0285 -9.568C56.2525 -9.568 60.1138 -8.58667 63.6125 -6.624C67.1538 -4.66133 69.9272 -1.93067 71.9325 1.568C73.9805 5.06666 75.0045 9.01333 75.0045 13.408C75.0045 17.8027 73.9805 21.7707 71.9325 25.312C69.8845 28.8107 67.1112 31.5413 63.6125 33.504C60.1138 35.4667 56.2525 36.448 52.0285 36.448ZM52.0285 26.464C55.6125 26.464 58.4712 25.2693 60.6045 22.88C62.7805 20.4907 63.8685 17.3333 63.8685 13.408C63.8685 9.44 62.7805 6.28267 60.6045 3.936C58.4712 1.54666 55.6125 0.351997 52.0285 0.351997C48.4018 0.351997 45.5005 1.52533 43.3245 3.872C41.1912 6.21866 40.1245 9.39733 40.1245 13.408C40.1245 17.376 41.1912 20.5547 43.3245 22.944C45.5005 25.2907 48.4018 26.464 52.0285 26.464ZM99.013 9.376H93.125V36H82.181V9.376H78.213V0.287998H82.181V-0.736C82.181 -5.13067 83.4397 -8.45867 85.957 -10.72C88.4743 -13.024 92.165 -14.176 97.029 -14.176C97.8397 -14.176 98.437 -14.1547 98.821 -14.112V-4.832C96.7303 -4.96 95.2583 -4.66133 94.405 -3.936C93.5517 -3.21067 93.125 -1.90934 93.125 -0.0320015V0.287998H99.013V9.376ZM122.076 9.376H116.188V36H105.244V9.376H101.276V0.287998H105.244V-0.736C105.244 -5.13067 106.502 -8.45867 109.02 -10.72C111.537 -13.024 115.228 -14.176 120.092 -14.176C120.902 -14.176 121.5 -14.1547 121.884 -14.112V-4.832C119.793 -4.96 118.321 -4.66133 117.468 -3.936C116.614 -3.21067 116.188 -1.90934 116.188 -0.0320015V0.287998H122.076V9.376ZM160.882 17.568C160.882 18.592 160.818 19.6587 160.69 20.768H135.922C136.093 22.9867 136.797 24.6933 138.034 25.888C139.314 27.04 140.871 27.616 142.706 27.616C145.437 27.616 147.335 26.464 148.402 24.16H160.05C159.453 26.5067 158.365 28.6187 156.786 30.496C155.25 32.3733 153.309 33.8453 150.962 34.912C148.615 35.9787 145.991 36.512 143.09 36.512C139.591 36.512 136.477 35.7653 133.746 34.272C131.015 32.7787 128.882 30.6453 127.346 27.872C125.81 25.0987 125.042 21.856 125.042 18.144C125.042 14.432 125.789 11.1893 127.282 8.416C128.818 5.64267 130.951 3.50933 133.682 2.016C136.413 0.522664 139.549 -0.224003 143.09 -0.224003C146.546 -0.224003 149.618 0.501331 152.306 1.952C154.994 3.40267 157.085 5.472 158.578 8.16C160.114 10.848 160.882 13.984 160.882 17.568ZM149.682 14.688C149.682 12.8107 149.042 11.3173 147.762 10.208C146.482 9.09867 144.882 8.544 142.962 8.544C141.127 8.544 139.57 9.07733 138.29 10.144C137.053 11.2107 136.285 12.7253 135.986 14.688H149.682ZM177.6 6.24C178.88 4.27733 180.48 2.74133 182.4 1.632C184.32 0.48 186.453 -0.0960007 188.8 -0.0960007V11.488H185.792C183.061 11.488 181.013 12.0853 179.648 13.28C178.282 14.432 177.6 16.48 177.6 19.424V36H166.656V0.287998H177.6V6.24ZM234.793 12.96C237.396 13.5147 239.486 14.816 241.065 16.864C242.644 18.8693 243.433 21.1733 243.433 23.776C243.433 27.5307 242.11 30.5173 239.465 32.736C236.862 34.912 233.214 36 228.521 36H207.593V-8.928H227.817C232.382 -8.928 235.945 -7.88267 238.505 -5.792C241.108 -3.70134 242.409 -0.864002 242.409 2.72C242.409 5.36533 241.705 7.56266 240.297 9.312C238.932 11.0613 237.097 12.2773 234.793 12.96ZM218.537 9.248H225.705C227.497 9.248 228.862 8.864 229.801 8.096C230.782 7.28533 231.273 6.112 231.273 4.576C231.273 3.04 230.782 1.86667 229.801 1.056C228.862 0.245333 227.497 -0.16 225.705 -0.16H218.537V9.248ZM226.601 27.168C228.436 27.168 229.844 26.7627 230.825 25.952C231.849 25.0987 232.361 23.8827 232.361 22.304C232.361 20.7253 231.828 19.488 230.761 18.592C229.737 17.696 228.308 17.248 226.473 17.248H218.537V27.168H226.601ZM283.444 17.568C283.444 18.592 283.381 19.6587 283.253 20.768H258.485C258.655 22.9867 259.359 24.6933 260.597 25.888C261.877 27.04 263.434 27.616 265.269 27.616C267.999 27.616 269.898 26.464 270.965 24.16H282.613C282.015 26.5067 280.927 28.6187 279.349 30.496C277.813 32.3733 275.871 33.8453 273.525 34.912C271.178 35.9787 268.554 36.512 265.653 36.512C262.154 36.512 259.039 35.7653 256.309 34.272C253.578 32.7787 251.445 30.6453 249.909 27.872C248.373 25.0987 247.605 21.856 247.605 18.144C247.605 14.432 248.351 11.1893 249.845 8.416C251.381 5.64267 253.514 3.50933 256.245 2.016C258.975 0.522664 262.111 -0.224003 265.653 -0.224003C269.109 -0.224003 272.181 0.501331 274.869 1.952C277.557 3.40267 279.647 5.472 281.141 8.16C282.677 10.848 283.444 13.984 283.444 17.568ZM272.245 14.688C272.245 12.8107 271.605 11.3173 270.325 10.208C269.045 9.09867 267.445 8.544 265.525 8.544C263.69 8.544 262.133 9.07733 260.853 10.144C259.615 11.2107 258.847 12.7253 258.549 14.688H272.245ZM303.746 36.512C300.631 36.512 297.858 35.9787 295.426 34.912C292.994 33.8453 291.074 32.3947 289.666 30.56C288.258 28.6827 287.469 26.592 287.298 24.288H298.114C298.242 25.5253 298.818 26.528 299.842 27.296C300.866 28.064 302.125 28.448 303.618 28.448C304.983 28.448 306.029 28.192 306.754 27.68C307.522 27.1253 307.906 26.4213 307.906 25.568C307.906 24.544 307.373 23.7973 306.306 23.328C305.239 22.816 303.511 22.2613 301.122 21.664C298.562 21.0667 296.429 20.448 294.722 19.808C293.015 19.1253 291.543 18.08 290.306 16.672C289.069 15.2213 288.45 13.28 288.45 10.848C288.45 8.8 289.005 6.944 290.114 5.28C291.266 3.57333 292.93 2.22933 295.106 1.248C297.325 0.266664 299.949 -0.224003 302.978 -0.224003C307.458 -0.224003 310.978 0.885331 313.538 3.104C316.141 5.32267 317.634 8.26667 318.018 11.936H307.906C307.735 10.6987 307.181 9.71733 306.242 8.992C305.346 8.26667 304.151 7.904 302.658 7.904C301.378 7.904 300.397 8.16 299.714 8.672C299.031 9.14133 298.69 9.80267 298.69 10.656C298.69 11.68 299.223 12.448 300.29 12.96C301.399 13.472 303.106 13.984 305.41 14.496C308.055 15.1787 310.21 15.8613 311.874 16.544C313.538 17.184 314.989 18.2507 316.226 19.744C317.506 21.1947 318.167 23.1573 318.21 25.632C318.21 27.7227 317.613 29.6 316.418 31.264C315.266 32.8853 313.581 34.1653 311.362 35.104C309.186 36.0427 306.647 36.512 303.746 36.512ZM344.81 26.72V36H339.242C335.274 36 332.18 35.04 329.962 33.12C327.743 31.1573 326.634 27.9787 326.634 23.584V9.376H322.282V0.287998H326.634V-8.416H337.578V0.287998H344.746V9.376H337.578V23.712C337.578 24.7787 337.834 25.5467 338.346 26.016C338.858 26.4853 339.711 26.72 340.906 26.72H344.81ZM380.724 36.448C377.439 36.448 374.495 35.9147 371.892 34.848C369.289 33.7813 367.199 32.2027 365.62 30.112C364.084 28.0213 363.273 25.504 363.188 22.56H374.836C375.007 24.224 375.583 25.504 376.564 26.4C377.545 27.2533 378.825 27.68 380.404 27.68C382.025 27.68 383.305 27.3173 384.244 26.592C385.183 25.824 385.652 24.7787 385.652 23.456C385.652 22.3467 385.268 21.4293 384.5 20.704C383.775 19.9787 382.857 19.3813 381.748 18.912C380.681 18.4427 379.145 17.9093 377.14 17.312C374.239 16.416 371.871 15.52 370.036 14.624C368.201 13.728 366.623 12.4053 365.3 10.656C363.977 8.90667 363.316 6.624 363.316 3.808C363.316 -0.373334 364.831 -3.63733 367.86 -5.984C370.889 -8.37333 374.836 -9.568 379.7 -9.568C384.649 -9.568 388.639 -8.37333 391.668 -5.984C394.697 -3.63733 396.319 -0.352001 396.532 3.872H384.692C384.607 2.42133 384.073 1.29067 383.092 0.48C382.111 -0.373336 380.852 -0.800003 379.316 -0.800003C377.993 -0.800003 376.927 -0.437336 376.116 0.287998C375.305 0.970664 374.9 1.97333 374.9 3.296C374.9 4.74666 375.583 5.87733 376.948 6.688C378.313 7.49867 380.447 8.37333 383.348 9.312C386.249 10.2933 388.596 11.232 390.388 12.128C392.223 13.024 393.801 14.3253 395.124 16.032C396.447 17.7387 397.108 19.936 397.108 22.624C397.108 25.184 396.447 27.5093 395.124 29.6C393.844 31.6907 391.967 33.3547 389.492 34.592C387.017 35.8293 384.095 36.448 380.724 36.448ZM437.507 17.568C437.507 18.592 437.443 19.6587 437.315 20.768H412.547C412.718 22.9867 413.422 24.6933 414.659 25.888C415.939 27.04 417.496 27.616 419.331 27.616C422.062 27.616 423.96 26.464 425.027 24.16H436.675C436.078 26.5067 434.99 28.6187 433.411 30.496C431.875 32.3733 429.934 33.8453 427.587 34.912C425.24 35.9787 422.616 36.512 419.715 36.512C416.216 36.512 413.102 35.7653 410.371 34.272C407.64 32.7787 405.507 30.6453 403.971 27.872C402.435 25.0987 401.667 21.856 401.667 18.144C401.667 14.432 402.414 11.1893 403.907 8.416C405.443 5.64267 407.576 3.50933 410.307 2.016C413.038 0.522664 416.174 -0.224003 419.715 -0.224003C423.171 -0.224003 426.243 0.501331 428.931 1.952C431.619 3.40267 433.71 5.472 435.203 8.16C436.739 10.848 437.507 13.984 437.507 17.568ZM426.307 14.688C426.307 12.8107 425.667 11.3173 424.387 10.208C423.107 9.09867 421.507 8.544 419.587 8.544C417.752 8.544 416.195 9.07733 414.915 10.144C413.678 11.2107 412.91 12.7253 412.611 14.688H426.307ZM454.225 6.24C455.505 4.27733 457.105 2.74133 459.025 1.632C460.945 0.48 463.078 -0.0960007 465.425 -0.0960007V11.488H462.417C459.686 11.488 457.638 12.0853 456.273 13.28C454.907 14.432 454.225 16.48 454.225 19.424V36H443.281V0.287998H454.225V6.24ZM486.72 25.76L494.464 0.287998H506.112L493.44 36H479.936L467.264 0.287998H478.976L486.72 25.76ZM516.222 -3.424C514.302 -3.424 512.723 -3.97867 511.486 -5.088C510.291 -6.24 509.694 -7.648 509.694 -9.312C509.694 -11.0187 510.291 -12.4267 511.486 -13.536C512.723 -14.688 514.302 -15.264 516.222 -15.264C518.099 -15.264 519.635 -14.688 520.83 -13.536C522.067 -12.4267 522.686 -11.0187 522.686 -9.312C522.686 -7.648 522.067 -6.24 520.83 -5.088C519.635 -3.97867 518.099 -3.424 516.222 -3.424ZM521.662 0.287998V36H510.718V0.287998H521.662ZM527.417 18.144C527.417 14.432 528.164 11.1893 529.657 8.416C531.193 5.64267 533.305 3.50933 535.993 2.016C538.724 0.522664 541.838 -0.224003 545.337 -0.224003C549.817 -0.224003 553.55 0.949331 556.537 3.296C559.566 5.64266 561.55 8.94933 562.489 13.216H550.841C549.86 10.4853 547.961 9.12 545.145 9.12C543.14 9.12 541.54 9.90933 540.345 11.488C539.15 13.024 538.553 15.2427 538.553 18.144C538.553 21.0453 539.15 23.2853 540.345 24.864C541.54 26.4 543.14 27.168 545.145 27.168C547.961 27.168 549.86 25.8027 550.841 23.072H562.489C561.55 27.2533 559.566 30.5387 556.537 32.928C553.508 35.3173 549.774 36.512 545.337 36.512C541.838 36.512 538.724 35.7653 535.993 34.272C533.305 32.7787 531.193 30.6453 529.657 27.872C528.164 25.0987 527.417 21.856 527.417 18.144ZM602.007 17.568C602.007 18.592 601.943 19.6587 601.815 20.768H577.047C577.218 22.9867 577.922 24.6933 579.159 25.888C580.439 27.04 581.996 27.616 583.831 27.616C586.562 27.616 588.46 26.464 589.527 24.16H601.175C600.578 26.5067 599.49 28.6187 597.911 30.496C596.375 32.3733 594.434 33.8453 592.087 34.912C589.74 35.9787 587.116 36.512 584.215 36.512C580.716 36.512 577.602 35.7653 574.871 34.272C572.14 32.7787 570.007 30.6453 568.471 27.872C566.935 25.0987 566.167 21.856 566.167 18.144C566.167 14.432 566.914 11.1893 568.407 8.416C569.943 5.64267 572.076 3.50933 574.807 2.016C577.538 0.522664 580.674 -0.224003 584.215 -0.224003C587.671 -0.224003 590.743 0.501331 593.431 1.952C596.119 3.40267 598.21 5.472 599.703 8.16C601.239 10.848 602.007 13.984 602.007 17.568ZM590.807 14.688C590.807 12.8107 590.167 11.3173 588.887 10.208C587.607 9.09867 586.007 8.544 584.087 8.544C582.252 8.544 580.695 9.07733 579.415 10.144C578.178 11.2107 577.41 12.7253 577.111 14.688H590.807ZM622.309 36.512C619.194 36.512 616.421 35.9787 613.989 34.912C611.557 33.8453 609.637 32.3947 608.229 30.56C606.821 28.6827 606.031 26.592 605.861 24.288H616.677C616.805 25.5253 617.381 26.528 618.405 27.296C619.429 28.064 620.687 28.448 622.181 28.448C623.546 28.448 624.591 28.192 625.317 27.68C626.085 27.1253 626.469 26.4213 626.469 25.568C626.469 24.544 625.935 23.7973 624.869 23.328C623.802 22.816 622.074 22.2613 619.685 21.664C617.125 21.0667 614.991 20.448 613.285 19.808C611.578 19.1253 610.106 18.08 608.869 16.672C607.631 15.2213 607.013 13.28 607.013 10.848C607.013 8.8 607.567 6.944 608.677 5.28C609.829 3.57333 611.493 2.22933 613.669 1.248C615.887 0.266664 618.511 -0.224003 621.541 -0.224003C626.021 -0.224003 629.541 0.885331 632.101 3.104C634.703 5.32267 636.197 8.26667 636.581 11.936H626.469C626.298 10.6987 625.743 9.71733 624.805 8.992C623.909 8.26667 622.714 7.904 621.221 7.904C619.941 7.904 618.959 8.16 618.277 8.672C617.594 9.14133 617.253 9.80267 617.253 10.656C617.253 11.68 617.786 12.448 618.853 12.96C619.962 13.472 621.669 13.984 623.973 14.496C626.618 15.1787 628.773 15.8613 630.437 16.544C632.101 17.184 633.551 18.2507 634.789 19.744C636.069 21.1947 636.73 23.1573 636.773 25.632C636.773 27.7227 636.175 29.6 634.981 31.264C633.829 32.8853 632.143 34.1653 629.925 35.104C627.749 36.0427 625.21 36.512 622.309 36.512Z" fill="#14183E"/>
<g id="Rectangle 6" filter="url(#filter0_dddddd_0_1)">
<rect x="-85.541" y="129.149" width="313.15" height="393.544" rx="47.8844" fill="white"/>
</g>
<path id="Getting cheap best flights" d="M-24.1305 374.1C-24.5171 373.287 -25.0771 372.66 -25.8105 372.22C-26.5438 371.767 -27.3971 371.54 -28.3705 371.54C-29.3438 371.54 -30.2238 371.767 -31.0105 372.22C-31.7838 372.66 -32.3971 373.3 -32.8505 374.14C-33.2905 374.967 -33.5105 375.927 -33.5105 377.02C-33.5105 378.113 -33.2905 379.073 -32.8505 379.9C-32.3971 380.727 -31.7838 381.367 -31.0105 381.82C-30.2238 382.26 -29.3438 382.48 -28.3705 382.48C-27.0105 382.48 -25.8905 382.073 -25.0105 381.26C-24.1305 380.447 -23.6171 379.347 -23.4705 377.96H-29.0305V376.48H-21.5305V377.88C-21.6371 379.027 -21.9971 380.08 -22.6105 381.04C-23.2238 381.987 -24.0305 382.74 -25.0305 383.3C-26.0305 383.847 -27.1438 384.12 -28.3705 384.12C-29.6638 384.12 -30.8438 383.82 -31.9105 383.22C-32.9771 382.607 -33.8238 381.76 -34.4505 380.68C-35.0638 379.6 -35.3705 378.38 -35.3705 377.02C-35.3705 375.66 -35.0638 374.44 -34.4505 373.36C-33.8238 372.267 -32.9771 371.42 -31.9105 370.82C-30.8438 370.207 -29.6638 369.9 -28.3705 369.9C-26.8905 369.9 -25.5838 370.267 -24.4505 371C-23.3038 371.733 -22.4705 372.767 -21.9505 374.1H-24.1305ZM-9.12406 378.1C-9.12406 378.447 -9.14406 378.813 -9.18406 379.2H-17.9441C-17.8774 380.28 -17.5107 381.127 -16.8441 381.74C-16.1641 382.34 -15.3441 382.64 -14.3841 382.64C-13.5974 382.64 -12.9441 382.46 -12.4241 382.1C-11.8907 381.727 -11.5174 381.233 -11.3041 380.62H-9.34406C-9.6374 381.673 -10.2241 382.533 -11.1041 383.2C-11.9841 383.853 -13.0774 384.18 -14.3841 384.18C-15.4241 384.18 -16.3574 383.947 -17.1841 383.48C-17.9974 383.013 -18.6374 382.353 -19.1041 381.5C-19.5707 380.633 -19.8041 379.633 -19.8041 378.5C-19.8041 377.367 -19.5774 376.373 -19.1241 375.52C-18.6707 374.667 -18.0374 374.013 -17.2241 373.56C-16.3974 373.093 -15.4507 372.86 -14.3841 372.86C-13.3441 372.86 -12.4241 373.087 -11.6241 373.54C-10.8241 373.993 -10.2107 374.62 -9.78406 375.42C-9.34406 376.207 -9.12406 377.1 -9.12406 378.1ZM-11.0041 377.72C-11.0041 377.027 -11.1574 376.433 -11.4641 375.94C-11.7707 375.433 -12.1907 375.053 -12.7241 374.8C-13.2441 374.533 -13.8241 374.4 -14.4641 374.4C-15.3841 374.4 -16.1707 374.693 -16.8241 375.28C-17.4641 375.867 -17.8307 376.68 -17.9241 377.72H-11.0041ZM-4.50172 374.54V381C-4.50172 381.533 -4.38839 381.913 -4.16172 382.14C-3.93505 382.353 -3.54172 382.46 -2.98172 382.46H-1.64172V384H-3.28172C-4.29505 384 -5.05505 383.767 -5.56172 383.3C-6.06839 382.833 -6.32172 382.067 -6.32172 381V374.54H-7.74172V373.04H-6.32172V370.28H-4.50172V373.04H-1.64172V374.54H-4.50172ZM2.78344 374.54V381C2.78344 381.533 2.89677 381.913 3.12344 382.14C3.3501 382.353 3.74344 382.46 4.30344 382.46H5.64344V384H4.00344C2.9901 384 2.2301 383.767 1.72344 383.3C1.21677 382.833 0.963438 382.067 0.963438 381V374.54H-0.456562V373.04H0.963438V370.28H2.78344V373.04H5.64344V374.54H2.78344ZM8.78859 371.26C8.44193 371.26 8.14859 371.14 7.90859 370.9C7.66859 370.66 7.54859 370.367 7.54859 370.02C7.54859 369.673 7.66859 369.38 7.90859 369.14C8.14859 368.9 8.44193 368.78 8.78859 368.78C9.12193 368.78 9.40193 368.9 9.62859 369.14C9.86859 369.38 9.98859 369.673 9.98859 370.02C9.98859 370.367 9.86859 370.66 9.62859 370.9C9.40193 371.14 9.12193 371.26 8.78859 371.26ZM9.66859 373.04V384H7.84859V373.04H9.66859ZM18.1105 372.84C19.4438 372.84 20.5238 373.247 21.3505 374.06C22.1771 374.86 22.5905 376.02 22.5905 377.54V384H20.7905V377.8C20.7905 376.707 20.5171 375.873 19.9705 375.3C19.4238 374.713 18.6771 374.42 17.7305 374.42C16.7705 374.42 16.0038 374.72 15.4305 375.32C14.8705 375.92 14.5905 376.793 14.5905 377.94V384H12.7705V373.04H14.5905V374.6C14.9505 374.04 15.4371 373.607 16.0505 373.3C16.6771 372.993 17.3638 372.84 18.1105 372.84ZM30.0834 372.86C31.0301 372.86 31.8568 373.067 32.5634 373.48C33.2834 373.893 33.8168 374.413 34.1634 375.04V373.04H36.0034V384.24C36.0034 385.24 35.7901 386.127 35.3634 386.9C34.9368 387.687 34.3234 388.3 33.5234 388.74C32.7368 389.18 31.8168 389.4 30.7634 389.4C29.3234 389.4 28.1234 389.06 27.1634 388.38C26.2034 387.7 25.6368 386.773 25.4634 385.6H27.2634C27.4634 386.267 27.8768 386.8 28.5034 387.2C29.1301 387.613 29.8834 387.82 30.7634 387.82C31.7634 387.82 32.5768 387.507 33.2034 386.88C33.8434 386.253 34.1634 385.373 34.1634 384.24V381.94C33.8034 382.58 33.2701 383.113 32.5634 383.54C31.8568 383.967 31.0301 384.18 30.0834 384.18C29.1101 384.18 28.2234 383.94 27.4234 383.46C26.6368 382.98 26.0168 382.307 25.5634 381.44C25.1101 380.573 24.8834 379.587 24.8834 378.48C24.8834 377.36 25.1101 376.38 25.5634 375.54C26.0168 374.687 26.6368 374.027 27.4234 373.56C28.2234 373.093 29.1101 372.86 30.0834 372.86ZM34.1634 378.5C34.1634 377.673 33.9968 376.953 33.6634 376.34C33.3301 375.727 32.8768 375.26 32.3034 374.94C31.7434 374.607 31.1234 374.44 30.4434 374.44C29.7634 374.44 29.1434 374.6 28.5834 374.92C28.0234 375.24 27.5768 375.707 27.2434 376.32C26.9101 376.933 26.7434 377.653 26.7434 378.48C26.7434 379.32 26.9101 380.053 27.2434 380.68C27.5768 381.293 28.0234 381.767 28.5834 382.1C29.1434 382.42 29.7634 382.58 30.4434 382.58C31.1234 382.58 31.7434 382.42 32.3034 382.1C32.8768 381.767 33.3301 381.293 33.6634 380.68C33.9968 380.053 34.1634 379.327 34.1634 378.5ZM43.7311 378.5C43.7311 377.367 43.9578 376.38 44.4111 375.54C44.8644 374.687 45.4911 374.027 46.2911 373.56C47.1044 373.093 48.0311 372.86 49.0711 372.86C50.4178 372.86 51.5244 373.187 52.3911 373.84C53.2711 374.493 53.8511 375.4 54.1311 376.56H52.1711C51.9844 375.893 51.6178 375.367 51.0711 374.98C50.5378 374.593 49.8711 374.4 49.0711 374.4C48.0311 374.4 47.1911 374.76 46.5511 375.48C45.9111 376.187 45.5911 377.193 45.5911 378.5C45.5911 379.82 45.9111 380.84 46.5511 381.56C47.1911 382.28 48.0311 382.64 49.0711 382.64C49.8711 382.64 50.5378 382.453 51.0711 382.08C51.6044 381.707 51.9711 381.173 52.1711 380.48H54.1311C53.8378 381.6 53.2511 382.5 52.3711 383.18C51.4911 383.847 50.3911 384.18 49.0711 384.18C48.0311 384.18 47.1044 383.947 46.2911 383.48C45.4911 383.013 44.8644 382.353 44.4111 381.5C43.9578 380.647 43.7311 379.647 43.7311 378.5ZM61.9995 372.84C62.8262 372.84 63.5729 373.02 64.2395 373.38C64.9062 373.727 65.4262 374.253 65.7995 374.96C66.1862 375.667 66.3795 376.527 66.3795 377.54V384H64.5795V377.8C64.5795 376.707 64.3062 375.873 63.7595 375.3C63.2129 374.713 62.4662 374.42 61.5195 374.42C60.5595 374.42 59.7929 374.72 59.2195 375.32C58.6595 375.92 58.3795 376.793 58.3795 377.94V384H56.5595V369.2H58.3795V374.6C58.7395 374.04 59.2329 373.607 59.8595 373.3C60.4995 372.993 61.2129 372.84 61.9995 372.84ZM79.3525 378.1C79.3525 378.447 79.3325 378.813 79.2925 379.2H70.5325C70.5992 380.28 70.9658 381.127 71.6325 381.74C72.3125 382.34 73.1325 382.64 74.0925 382.64C74.8792 382.64 75.5325 382.46 76.0525 382.1C76.5858 381.727 76.9592 381.233 77.1725 380.62H79.1325C78.8392 381.673 78.2525 382.533 77.3725 383.2C76.4925 383.853 75.3992 384.18 74.0925 384.18C73.0525 384.18 72.1192 383.947 71.2925 383.48C70.4792 383.013 69.8392 382.353 69.3725 381.5C68.9058 380.633 68.6725 379.633 68.6725 378.5C68.6725 377.367 68.8992 376.373 69.3525 375.52C69.8058 374.667 70.4392 374.013 71.2525 373.56C72.0792 373.093 73.0258 372.86 74.0925 372.86C75.1325 372.86 76.0525 373.087 76.8525 373.54C77.6525 373.993 78.2658 374.62 78.6925 375.42C79.1325 376.207 79.3525 377.1 79.3525 378.1ZM77.4725 377.72C77.4725 377.027 77.3192 376.433 77.0125 375.94C76.7058 375.433 76.2858 375.053 75.7525 374.8C75.2325 374.533 74.6525 374.4 74.0125 374.4C73.0925 374.4 72.3058 374.693 71.6525 375.28C71.0125 375.867 70.6458 376.68 70.5525 377.72H77.4725ZM81.0748 378.48C81.0748 377.36 81.3015 376.38 81.7548 375.54C82.2082 374.687 82.8282 374.027 83.6148 373.56C84.4148 373.093 85.3015 372.86 86.2748 372.86C87.2348 372.86 88.0682 373.067 88.7748 373.48C89.4815 373.893 90.0082 374.413 90.3548 375.04V373.04H92.1948V384H90.3548V381.96C89.9948 382.6 89.4548 383.133 88.7348 383.56C88.0282 383.973 87.2015 384.18 86.2548 384.18C85.2815 384.18 84.4015 383.94 83.6148 383.46C82.8282 382.98 82.2082 382.307 81.7548 381.44C81.3015 380.573 81.0748 379.587 81.0748 378.48ZM90.3548 378.5C90.3548 377.673 90.1882 376.953 89.8548 376.34C89.5215 375.727 89.0682 375.26 88.4948 374.94C87.9348 374.607 87.3148 374.44 86.6348 374.44C85.9548 374.44 85.3348 374.6 84.7748 374.92C84.2148 375.24 83.7682 375.707 83.4348 376.32C83.1015 376.933 82.9348 377.653 82.9348 378.48C82.9348 379.32 83.1015 380.053 83.4348 380.68C83.7682 381.293 84.2148 381.767 84.7748 382.1C85.3348 382.42 85.9548 382.58 86.6348 382.58C87.3148 382.58 87.9348 382.42 88.4948 382.1C89.0682 381.767 89.5215 381.293 89.8548 380.68C90.1882 380.053 90.3548 379.327 90.3548 378.5ZM97.0905 375.06C97.4505 374.433 97.9838 373.913 98.6905 373.5C99.4105 373.073 100.244 372.86 101.19 372.86C102.164 372.86 103.044 373.093 103.83 373.56C104.63 374.027 105.257 374.687 105.71 375.54C106.164 376.38 106.39 377.36 106.39 378.48C106.39 379.587 106.164 380.573 105.71 381.44C105.257 382.307 104.63 382.98 103.83 383.46C103.044 383.94 102.164 384.18 101.19 384.18C100.257 384.18 99.4305 383.973 98.7105 383.56C98.0038 383.133 97.4638 382.607 97.0905 381.98V389.2H95.2705V373.04H97.0905V375.06ZM104.53 378.48C104.53 377.653 104.364 376.933 104.03 376.32C103.697 375.707 103.244 375.24 102.67 374.92C102.11 374.6 101.49 374.44 100.81 374.44C100.144 374.44 99.5238 374.607 98.9505 374.94C98.3905 375.26 97.9371 375.733 97.5905 376.36C97.2571 376.973 97.0905 377.687 97.0905 378.5C97.0905 379.327 97.2571 380.053 97.5905 380.68C97.9371 381.293 98.3905 381.767 98.9505 382.1C99.5238 382.42 100.144 382.58 100.81 382.58C101.49 382.58 102.11 382.42 102.67 382.1C103.244 381.767 103.697 381.293 104.03 380.68C104.364 380.053 104.53 379.32 104.53 378.48ZM115.938 375.08C116.311 374.427 116.858 373.893 117.578 373.48C118.298 373.067 119.118 372.86 120.038 372.86C121.025 372.86 121.911 373.093 122.698 373.56C123.485 374.027 124.105 374.687 124.558 375.54C125.011 376.38 125.238 377.36 125.238 378.48C125.238 379.587 125.011 380.573 124.558 381.44C124.105 382.307 123.478 382.98 122.678 383.46C121.891 383.94 121.011 384.18 120.038 384.18C119.091 384.18 118.258 383.973 117.538 383.56C116.831 383.147 116.298 382.62 115.938 381.98V384H114.118V369.2H115.938V375.08ZM123.378 378.48C123.378 377.653 123.211 376.933 122.878 376.32C122.545 375.707 122.091 375.24 121.518 374.92C120.958 374.6 120.338 374.44 119.658 374.44C118.991 374.44 118.371 374.607 117.798 374.94C117.238 375.26 116.785 375.733 116.438 376.36C116.105 376.973 115.938 377.687 115.938 378.5C115.938 379.327 116.105 380.053 116.438 380.68C116.785 381.293 117.238 381.767 117.798 382.1C118.371 382.42 118.991 382.58 119.658 382.58C120.338 382.58 120.958 382.42 121.518 382.1C122.091 381.767 122.545 381.293 122.878 380.68C123.211 380.053 123.378 379.32 123.378 378.48ZM137.634 378.1C137.634 378.447 137.614 378.813 137.574 379.2H128.814C128.88 380.28 129.247 381.127 129.914 381.74C130.594 382.34 131.414 382.64 132.374 382.64C133.16 382.64 133.814 382.46 134.334 382.1C134.867 381.727 135.24 381.233 135.454 380.62H137.414C137.12 381.673 136.534 382.533 135.654 383.2C134.774 383.853 133.68 384.18 132.374 384.18C131.334 384.18 130.4 383.947 129.574 383.48C128.76 383.013 128.12 382.353 127.654 381.5C127.187 380.633 126.954 379.633 126.954 378.5C126.954 377.367 127.18 376.373 127.634 375.52C128.087 374.667 128.72 374.013 129.534 373.56C130.36 373.093 131.307 372.86 132.374 372.86C133.414 372.86 134.334 373.087 135.134 373.54C135.934 373.993 136.547 374.62 136.974 375.42C137.414 376.207 137.634 377.1 137.634 378.1ZM135.754 377.72C135.754 377.027 135.6 376.433 135.294 375.94C134.987 375.433 134.567 375.053 134.034 374.8C133.514 374.533 132.934 374.4 132.294 374.4C131.374 374.4 130.587 374.693 129.934 375.28C129.294 375.867 128.927 376.68 128.834 377.72H135.754ZM143.916 384.18C143.076 384.18 142.323 384.04 141.656 383.76C140.989 383.467 140.463 383.067 140.076 382.56C139.689 382.04 139.476 381.447 139.436 380.78H141.316C141.369 381.327 141.623 381.773 142.076 382.12C142.543 382.467 143.149 382.64 143.896 382.64C144.589 382.64 145.136 382.487 145.536 382.18C145.936 381.873 146.136 381.487 146.136 381.02C146.136 380.54 145.923 380.187 145.496 379.96C145.069 379.72 144.409 379.487 143.516 379.26C142.703 379.047 142.036 378.833 141.516 378.62C141.009 378.393 140.569 378.067 140.196 377.64C139.836 377.2 139.656 376.627 139.656 375.92C139.656 375.36 139.823 374.847 140.156 374.38C140.489 373.913 140.963 373.547 141.576 373.28C142.189 373 142.889 372.86 143.676 372.86C144.889 372.86 145.869 373.167 146.616 373.78C147.363 374.393 147.763 375.233 147.816 376.3H145.996C145.956 375.727 145.723 375.267 145.296 374.92C144.883 374.573 144.323 374.4 143.616 374.4C142.963 374.4 142.443 374.54 142.056 374.82C141.669 375.1 141.476 375.467 141.476 375.92C141.476 376.28 141.589 376.58 141.816 376.82C142.056 377.047 142.349 377.233 142.696 377.38C143.056 377.513 143.549 377.667 144.176 377.84C144.963 378.053 145.603 378.267 146.096 378.48C146.589 378.68 147.009 378.987 147.356 379.4C147.716 379.813 147.903 380.353 147.916 381.02C147.916 381.62 147.749 382.16 147.416 382.64C147.083 383.12 146.609 383.5 145.996 383.78C145.396 384.047 144.703 384.18 143.916 384.18ZM152.705 374.54V381C152.705 381.533 152.819 381.913 153.045 382.14C153.272 382.353 153.665 382.46 154.225 382.46H155.565V384H153.925C152.912 384 152.152 383.767 151.645 383.3C151.139 382.833 150.885 382.067 150.885 381V374.54H149.465V373.04H150.885V370.28H152.705V373.04H155.565V374.54H152.705ZM35.7656 409.54H33.4656V419H31.6456V409.54H30.2256V408.04H31.6456V407.26C31.6456 406.033 31.959 405.14 32.5856 404.58C33.2256 404.007 34.2456 403.72 35.6456 403.72V405.24C34.8456 405.24 34.279 405.4 33.9456 405.72C33.6256 406.027 33.4656 406.54 33.4656 407.26V408.04H35.7656V409.54ZM39.7077 404.2V419H37.8877V404.2H39.7077ZM43.7495 406.26C43.4029 406.26 43.1095 406.14 42.8695 405.9C42.6295 405.66 42.5095 405.367 42.5095 405.02C42.5095 404.673 42.6295 404.38 42.8695 404.14C43.1095 403.9 43.4029 403.78 43.7495 403.78C44.0829 403.78 44.3629 403.9 44.5895 404.14C44.8295 404.38 44.9495 404.673 44.9495 405.02C44.9495 405.367 44.8295 405.66 44.5895 405.9C44.3629 406.14 44.0829 406.26 43.7495 406.26ZM44.6295 408.04V419H42.8095V408.04H44.6295ZM52.2514 407.86C53.1981 407.86 54.0247 408.067 54.7314 408.48C55.4514 408.893 55.9847 409.413 56.3314 410.04V408.04H58.1714V419.24C58.1714 420.24 57.9581 421.127 57.5314 421.9C57.1047 422.687 56.4914 423.3 55.6914 423.74C54.9047 424.18 53.9847 424.4 52.9314 424.4C51.4914 424.4 50.2914 424.06 49.3314 423.38C48.3714 422.7 47.8047 421.773 47.6314 420.6H49.4314C49.6314 421.267 50.0447 421.8 50.6714 422.2C51.2981 422.613 52.0514 422.82 52.9314 422.82C53.9314 422.82 54.7447 422.507 55.3714 421.88C56.0114 421.253 56.3314 420.373 56.3314 419.24V416.94C55.9714 417.58 55.4381 418.113 54.7314 418.54C54.0247 418.967 53.1981 419.18 52.2514 419.18C51.2781 419.18 50.3914 418.94 49.5914 418.46C48.8047 417.98 48.1847 417.307 47.7314 416.44C47.2781 415.573 47.0514 414.587 47.0514 413.48C47.0514 412.36 47.2781 411.38 47.7314 410.54C48.1847 409.687 48.8047 409.027 49.5914 408.56C50.3914 408.093 51.2781 407.86 52.2514 407.86ZM56.3314 413.5C56.3314 412.673 56.1647 411.953 55.8314 411.34C55.4981 410.727 55.0447 410.26 54.4714 409.94C53.9114 409.607 53.2914 409.44 52.6114 409.44C51.9314 409.44 51.3114 409.6 50.7514 409.92C50.1914 410.24 49.7447 410.707 49.4114 411.32C49.0781 411.933 48.9114 412.653 48.9114 413.48C48.9114 414.32 49.0781 415.053 49.4114 415.68C49.7447 416.293 50.1914 416.767 50.7514 417.1C51.3114 417.42 51.9314 417.58 52.6114 417.58C53.2914 417.58 53.9114 417.42 54.4714 417.1C55.0447 416.767 55.4981 416.293 55.8314 415.68C56.1647 415.053 56.3314 414.327 56.3314 413.5ZM66.687 407.84C67.5137 407.84 68.2604 408.02 68.927 408.38C69.5937 408.727 70.1137 409.253 70.487 409.96C70.8737 410.667 71.067 411.527 71.067 412.54V419H69.267V412.8C69.267 411.707 68.9937 410.873 68.447 410.3C67.9004 409.713 67.1537 409.42 66.207 409.42C65.247 409.42 64.4804 409.72 63.907 410.32C63.347 410.92 63.067 411.793 63.067 412.94V419H61.247V404.2H63.067V409.6C63.427 409.04 63.9204 408.607 64.547 408.3C65.187 407.993 65.9004 407.84 66.687 407.84ZM76.26 409.54V416C76.26 416.533 76.3733 416.913 76.6 417.14C76.8267 417.353 77.22 417.46 77.78 417.46H79.12V419H77.48C76.4667 419 75.7067 418.767 75.2 418.3C74.6933 417.833 74.44 417.067 74.44 416V409.54H73.02V408.04H74.44V405.28H76.26V408.04H79.12V409.54H76.26ZM85.2052 419.18C84.3652 419.18 83.6118 419.04 82.9452 418.76C82.2785 418.467 81.7518 418.067 81.3652 417.56C80.9785 417.04 80.7652 416.447 80.7252 415.78H82.6052C82.6585 416.327 82.9118 416.773 83.3652 417.12C83.8318 417.467 84.4385 417.64 85.1852 417.64C85.8785 417.64 86.4252 417.487 86.8252 417.18C87.2252 416.873 87.4252 416.487 87.4252 416.02C87.4252 415.54 87.2118 415.187 86.7852 414.96C86.3585 414.72 85.6985 414.487 84.8052 414.26C83.9918 414.047 83.3252 413.833 82.8052 413.62C82.2985 413.393 81.8585 413.067 81.4852 412.64C81.1252 412.2 80.9452 411.627 80.9452 410.92C80.9452 410.36 81.1118 409.847 81.4452 409.38C81.7785 408.913 82.2518 408.547 82.8652 408.28C83.4785 408 84.1785 407.86 84.9652 407.86C86.1785 407.86 87.1585 408.167 87.9052 408.78C88.6518 409.393 89.0518 410.233 89.1052 411.3H87.2852C87.2452 410.727 87.0118 410.267 86.5852 409.92C86.1718 409.573 85.6118 409.4 84.9052 409.4C84.2518 409.4 83.7318 409.54 83.3452 409.82C82.9585 410.1 82.7652 410.467 82.7652 410.92C82.7652 411.28 82.8785 411.58 83.1052 411.82C83.3452 412.047 83.6385 412.233 83.9852 412.38C84.3452 412.513 84.8385 412.667 85.4652 412.84C86.2518 413.053 86.8918 413.267 87.3852 413.48C87.8785 413.68 88.2985 413.987 88.6452 414.4C89.0052 414.813 89.1918 415.353 89.2052 416.02C89.2052 416.62 89.0385 417.16 88.7052 417.64C88.3718 418.12 87.8985 418.5 87.2852 418.78C86.6852 419.047 85.9918 419.18 85.2052 419.18Z" fill="black"/>
<path id="Best Flights" d="M10.9663 327.432C11.8623 327.592 12.6223 328.064 13.2463 328.848C13.8703 329.632 14.1823 330.52 14.1823 331.512C14.1823 332.36 13.9583 333.128 13.5103 333.816C13.0783 334.488 12.4463 335.024 11.6143 335.424C10.7823 335.808 9.81428 336 8.71028 336H2.03828V319.32H8.39828C9.53428 319.32 10.5103 319.512 11.3263 319.896C12.1423 320.28 12.7583 320.8 13.1743 321.456C13.5903 322.096 13.7983 322.816 13.7983 323.616C13.7983 324.576 13.5423 325.376 13.0303 326.016C12.5183 326.656 11.8303 327.128 10.9663 327.432ZM4.77428 326.328H8.15828C9.05428 326.328 9.75028 326.128 10.2463 325.728C10.7583 325.312 11.0143 324.72 11.0143 323.952C11.0143 323.2 10.7583 322.616 10.2463 322.2C9.75028 321.768 9.05428 321.552 8.15828 321.552H4.77428V326.328ZM8.47028 333.768C9.39828 333.768 10.1263 333.544 10.6543 333.096C11.1823 332.648 11.4463 332.024 11.4463 331.224C11.4463 330.408 11.1663 329.76 10.6063 329.28C10.0463 328.8 9.30228 328.56 8.37428 328.56H4.77428V333.768H8.47028ZM29.2755 329.064C29.2755 329.56 29.2435 330.008 29.1795 330.408H19.0755C19.1555 331.464 19.5475 332.312 20.2515 332.952C20.9555 333.592 21.8195 333.912 22.8435 333.912C24.3155 333.912 25.3555 333.296 25.9635 332.064H28.9155C28.5155 333.28 27.7875 334.28 26.7315 335.064C25.6915 335.832 24.3955 336.216 22.8435 336.216C21.5795 336.216 20.4435 335.936 19.4355 335.376C18.4435 334.8 17.6595 334 17.0835 332.976C16.5235 331.936 16.2435 330.736 16.2435 329.376C16.2435 328.016 16.5155 326.824 17.0595 325.8C17.6195 324.76 18.3955 323.96 19.3875 323.4C20.3955 322.84 21.5475 322.56 22.8435 322.56C24.0915 322.56 25.2035 322.832 26.1795 323.376C27.1555 323.92 27.9155 324.688 28.4595 325.68C29.0035 326.656 29.2755 327.784 29.2755 329.064ZM26.4195 328.2C26.4035 327.192 26.0435 326.384 25.3395 325.776C24.6355 325.168 23.7635 324.864 22.7235 324.864C21.7795 324.864 20.9715 325.168 20.2995 325.776C19.6275 326.368 19.2275 327.176 19.0995 328.2H26.4195ZM36.768 336.216C35.728 336.216 34.792 336.032 33.96 335.664C33.144 335.28 32.496 334.768 32.016 334.128C31.536 333.472 31.28 332.744 31.248 331.944H34.08C34.128 332.504 34.392 332.976 34.872 333.36C35.368 333.728 35.984 333.912 36.72 333.912C37.488 333.912 38.08 333.768 38.496 333.48C38.928 333.176 39.144 332.792 39.144 332.328C39.144 331.832 38.904 331.464 38.424 331.224C37.96 330.984 37.216 330.72 36.192 330.432C35.2 330.16 34.392 329.896 33.768 329.64C33.144 329.384 32.6 328.992 32.136 328.464C31.688 327.936 31.464 327.24 31.464 326.376C31.464 325.672 31.672 325.032 32.088 324.456C32.504 323.864 33.096 323.4 33.864 323.064C34.648 322.728 35.544 322.56 36.552 322.56C38.056 322.56 39.264 322.944 40.176 323.712C41.104 324.464 41.6 325.496 41.664 326.808H38.928C38.88 326.216 38.64 325.744 38.208 325.392C37.776 325.04 37.192 324.864 36.456 324.864C35.736 324.864 35.184 325 34.8 325.272C34.416 325.544 34.224 325.904 34.224 326.352C34.224 326.704 34.352 327 34.608 327.24C34.864 327.48 35.176 327.672 35.544 327.816C35.912 327.944 36.456 328.112 37.176 328.32C38.136 328.576 38.92 328.84 39.528 329.112C40.152 329.368 40.688 329.752 41.136 330.264C41.584 330.776 41.816 331.456 41.832 332.304C41.832 333.056 41.624 333.728 41.208 334.32C40.792 334.912 40.2 335.376 39.432 335.712C38.68 336.048 37.792 336.216 36.768 336.216ZM47.9803 325.008V332.328C47.9803 332.824 48.0923 333.184 48.3163 333.408C48.5563 333.616 48.9563 333.72 49.5163 333.72H51.1963V336H49.0363C47.8043 336 46.8603 335.712 46.2043 335.136C45.5483 334.56 45.2203 333.624 45.2203 332.328V325.008H43.6603V322.776H45.2203V319.488H47.9803V322.776H51.1963V325.008H47.9803ZM69.7683 319.32V321.552H62.6883V326.472H68.2083V328.704H62.6883V336H59.9523V319.32H69.7683ZM75.0399 318.24V336H72.3039V318.24H75.0399ZM80.024 321.024C79.528 321.024 79.112 320.856 78.776 320.52C78.44 320.184 78.272 319.768 78.272 319.272C78.272 318.776 78.44 318.36 78.776 318.024C79.112 317.688 79.528 317.52 80.024 317.52C80.504 317.52 80.912 317.688 81.248 318.024C81.584 318.36 81.752 318.776 81.752 319.272C81.752 319.768 81.584 320.184 81.248 320.52C80.912 320.856 80.504 321.024 80.024 321.024ZM81.368 322.776V336H78.632V322.776H81.368ZM90.2882 322.56C91.3122 322.56 92.2162 322.768 93.0002 323.184C93.8002 323.584 94.4242 324.088 94.8722 324.696V322.776H97.6322V336.216C97.6322 337.432 97.3762 338.512 96.8642 339.456C96.3522 340.416 95.6082 341.168 94.6322 341.712C93.6722 342.256 92.5202 342.528 91.1762 342.528C89.3842 342.528 87.8962 342.104 86.7122 341.256C85.5282 340.424 84.8562 339.288 84.6962 337.848H87.4082C87.6162 338.536 88.0562 339.088 88.7282 339.504C89.4162 339.936 90.2322 340.152 91.1762 340.152C92.2802 340.152 93.1682 339.816 93.8402 339.144C94.5282 338.472 94.8722 337.496 94.8722 336.216V334.008C94.4082 334.632 93.7762 335.16 92.9762 335.592C92.1922 336.008 91.2962 336.216 90.2882 336.216C89.1362 336.216 88.0802 335.928 87.1202 335.352C86.1762 334.76 85.4242 333.944 84.8642 332.904C84.3202 331.848 84.0482 330.656 84.0482 329.328C84.0482 328 84.3202 326.824 84.8642 325.8C85.4242 324.776 86.1762 323.984 87.1202 323.424C88.0802 322.848 89.1362 322.56 90.2882 322.56ZM94.8722 329.376C94.8722 328.464 94.6802 327.672 94.2962 327C93.9282 326.328 93.4402 325.816 92.8322 325.464C92.2242 325.112 91.5682 324.936 90.8642 324.936C90.1602 324.936 89.5042 325.112 88.8962 325.464C88.2882 325.8 87.7922 326.304 87.4082 326.976C87.0402 327.632 86.8562 328.416 86.8562 329.328C86.8562 330.24 87.0402 331.04 87.4082 331.728C87.7922 332.416 88.2882 332.944 88.8962 333.312C89.5202 333.664 90.1762 333.84 90.8642 333.84C91.5682 333.84 92.2242 333.664 92.8322 333.312C93.4402 332.96 93.9282 332.448 94.2962 331.776C94.6802 331.088 94.8722 330.288 94.8722 329.376ZM108.066 322.56C109.074 322.56 109.97 322.776 110.754 323.208C111.554 323.64 112.178 324.28 112.626 325.128C113.09 325.976 113.322 327 113.322 328.2V336H110.61V328.608C110.61 327.424 110.314 326.52 109.722 325.896C109.13 325.256 108.322 324.936 107.298 324.936C106.274 324.936 105.458 325.256 104.85 325.896C104.258 326.52 103.962 327.424 103.962 328.608V336H101.226V318.24H103.962V324.312C104.426 323.752 105.01 323.32 105.714 323.016C106.434 322.712 107.218 322.56 108.066 322.56ZM120.004 325.008V332.328C120.004 332.824 120.116 333.184 120.34 333.408C120.58 333.616 120.98 333.72 121.54 333.72H123.22V336H121.06C119.828 336 118.884 335.712 118.228 335.136C117.572 334.56 117.244 333.624 117.244 332.328V325.008H115.684V322.776H117.244V319.488H120.004V322.776H123.22V325.008H120.004ZM130.541 336.216C129.501 336.216 128.565 336.032 127.733 335.664C126.917 335.28 126.269 334.768 125.789 334.128C125.309 333.472 125.053 332.744 125.021 331.944H127.853C127.901 332.504 128.165 332.976 128.645 333.36C129.141 333.728 129.757 333.912 130.493 333.912C131.261 333.912 131.853 333.768 132.269 333.48C132.701 333.176 132.917 332.792 132.917 332.328C132.917 331.832 132.677 331.464 132.197 331.224C131.733 330.984 130.989 330.72 129.965 330.432C128.973 330.16 128.165 329.896 127.541 329.64C126.917 329.384 126.373 328.992 125.909 328.464C125.461 327.936 125.237 327.24 125.237 326.376C125.237 325.672 125.445 325.032 125.861 324.456C126.277 323.864 126.869 323.4 127.637 323.064C128.421 322.728 129.317 322.56 130.325 322.56C131.829 322.56 133.037 322.944 133.949 323.712C134.877 324.464 135.373 325.496 135.437 326.808H132.701C132.653 326.216 132.413 325.744 131.981 325.392C131.549 325.04 130.965 324.864 130.229 324.864C129.509 324.864 128.957 325 128.573 325.272C128.189 325.544 127.997 325.904 127.997 326.352C127.997 326.704 128.125 327 128.381 327.24C128.637 327.48 128.949 327.672 129.317 327.816C129.685 327.944 130.229 328.112 130.949 328.32C131.909 328.576 132.693 328.84 133.301 329.112C133.925 329.368 134.461 329.752 134.909 330.264C135.357 330.776 135.589 331.456 135.605 332.304C135.605 333.056 135.397 333.728 134.981 334.32C134.565 334.912 133.973 335.376 133.205 335.712C132.453 336.048 131.565 336.216 130.541 336.216Z" fill="black"/>
<path id="Rectangle 158" d="M27.9967 216.756C27.9967 229.979 38.716 240.698 51.9389 240.698L79.9885 240.698C83.6615 240.698 86.6391 237.72 86.6391 234.047L86.6391 192.586C86.6391 185.24 80.6839 179.285 73.3379 179.285L34.6473 179.285C30.9743 179.285 27.9967 182.262 27.9967 185.936L27.9967 216.756Z" fill="#FBEBBC"/>
<g id="plane">
<g id="Group">
<path id="Vector" d="M85.2791 235.588C83.6722 236.168 82.0898 237.043 80.6299 238.156C76.83 240.999 74.5089 244.61 75.446 246.221C76.383 247.831 80.2231 246.832 84.0231 243.989C85.5 242.904 86.8314 241.599 87.9352 240.153C88.4488 239.457 88.5787 238.664 88.2667 238.13L87.0494 236.037C86.7399 235.501 86.0451 235.325 85.2791 235.588Z" fill="#D5D6DB"/>
<path id="Vector_2" d="M75.9461 201.762C74.781 202.183 73.6334 202.817 72.5748 203.624C69.8201 205.685 68.1362 208.304 68.8151 209.471C69.494 210.638 72.2795 209.912 75.0339 207.851C76.1048 207.065 77.0702 206.118 77.8707 205.07C78.2427 204.565 78.3366 203.991 78.1105 203.603L77.2291 202.088C77.005 201.7 76.5016 201.571 75.9461 201.762Z" fill="#D5D6DB"/>
<path id="Vector_3" d="M60.9468 205.033C60.6919 205.041 60.4145 205.149 60.1688 205.333L53.6887 210.196C53.1467 210.602 52.9015 211.268 53.1415 211.684C53.1964 211.779 53.2745 211.856 53.3715 211.91L68.202 220.232L89.81 204.017L60.9468 205.033Z" fill="#029BC5"/>
<path id="Vector_4" d="M126.747 198.434L69.3114 238.5L35.7551 255.121L18.8278 260.492L17.1606 257.826L112.835 192.085C115.686 190.119 118.815 188.725 121.905 188.045C123.258 187.754 124.585 187.616 125.856 187.632C126.982 187.639 128.042 187.802 129.002 188.118C130.074 188.478 132.168 188.252 132.787 189.175C132.789 189.173 134.113 193.614 126.747 198.434Z" fill="#E1E6E9"/>
<path id="Vector_5" d="M71.2483 236.659L44.8817 277.061C44.5491 277.623 44.6947 278.181 45.2066 278.306C45.5208 278.383 45.9168 278.28 46.2588 278.032L52.64 273.422C53.8673 272.535 54.9702 271.472 55.8806 270.298L105.917 210.794L71.2483 236.659Z" fill="#029BC5"/>
<path id="Vector_6" d="M8.80921 234.859C8.4037 234.778 7.90764 234.924 7.4776 235.251L2.07804 239.363C1.34233 239.923 1.01073 240.841 1.33716 241.413C1.39936 241.522 1.48293 241.614 1.58526 241.684L15.542 251.331L31.4375 239.408L8.80921 234.859Z" fill="#029BC5"/>
<path id="Vector_7" d="M21.2131 254.67L12.9443 265.986C12.8233 266.149 12.8389 266.33 12.9792 266.39C13.0804 266.434 13.2238 266.404 13.3442 266.313L18.2651 262.779C18.3033 262.751 18.3384 262.719 18.3679 262.683L30.3345 248.124L21.2131 254.67Z" fill="#029BC5"/>
<path id="Vector_8" d="M124.38 188.932C123.049 188.912 121.658 189.066 120.24 189.389C118.759 191.469 117.761 193.711 117.344 195.891C117.298 196.324 117.634 196.583 118.093 196.469C118.236 196.434 118.381 196.365 118.512 196.268L127.678 189.475C126.671 189.123 125.561 188.94 124.38 188.932Z" fill="#029BC5"/>
<path id="Vector_9" d="M104.85 201.182L111.051 196.365L116.102 205.343L109.9 210.159L104.85 201.182Z" fill="#D5D6DB"/>
<g id="Group_2">
<path id="Vector_10" d="M101.259 204.385C100.516 204.963 100.178 205.902 100.505 206.481L101.035 207.42C101.387 207.979 102.267 207.948 102.999 207.35C103.696 206.781 104.015 205.897 103.727 205.326L103.197 204.388C102.87 203.809 102.003 203.807 101.259 204.385Z" fill="#3A556A"/>
<path id="Vector_11" d="M96.0234 207.859C95.2798 208.437 94.9418 209.376 95.2691 209.955L95.7994 210.894C96.1515 211.453 97.0307 211.422 97.7633 210.824C98.4605 210.255 98.7789 209.371 98.4916 208.8L97.9613 207.862C97.634 207.283 96.7667 207.282 96.0234 207.859Z" fill="#3A556A"/>
<path id="Vector_12" d="M90.7855 211.337C90.0427 211.916 89.7058 212.853 90.0328 213.432L90.5631 214.371C90.9152 214.93 91.7944 214.899 92.527 214.301C93.2241 213.732 93.5426 212.848 93.2552 212.278L92.725 211.339C92.3977 210.76 91.5295 210.759 90.7855 211.337Z" fill="#3A556A"/>
<path id="Vector_13" d="M85.5496 214.81C84.8067 215.388 84.4699 216.326 84.7969 216.905L85.3272 217.843C85.6793 218.403 86.5585 218.372 87.2911 217.774C87.9882 217.205 88.3067 216.32 88.0193 215.75L87.4891 214.811C87.1615 214.232 86.2933 214.232 85.5496 214.81Z" fill="#3A556A"/>
<path id="Vector_14" d="M80.3146 218.287C79.571 218.866 79.2338 219.805 79.5611 220.384L80.0919 221.324C80.4191 221.904 81.2873 221.904 82.031 221.326C82.7748 220.747 83.1124 219.809 82.7852 219.229L82.2544 218.29C81.9281 217.71 81.0603 217.708 80.3162 218.286C80.3155 218.286 80.3152 218.286 80.3146 218.287Z" fill="#3A556A"/>
<path id="Vector_15" d="M75.0788 221.76C74.3352 222.34 73.998 223.278 74.3253 223.858L74.8561 224.798C75.1834 225.377 76.0515 225.378 76.7953 224.799C77.539 224.221 77.8766 223.282 77.5494 222.703L77.0186 221.763C76.6923 221.183 75.8245 221.181 75.0804 221.759C75.0797 221.759 75.0791 221.76 75.0788 221.76Z" fill="#3A556A"/>
<path id="Vector_16" d="M69.8423 225.237C69.0987 225.816 68.7615 226.755 69.0889 227.334L69.6197 228.274C69.9478 228.853 70.8165 228.852 71.5594 228.273C72.3012 227.695 72.6381 226.758 72.3125 226.179L71.7817 225.24C71.4547 224.66 70.5866 224.658 69.8423 225.237Z" fill="#3A556A"/>
<path id="Vector_17" d="M64.606 228.711C63.8624 229.29 63.5252 230.229 63.8525 230.808L64.3833 231.748C64.7115 232.327 65.5801 232.326 66.3231 231.747C67.0648 231.169 67.4018 230.232 67.0762 229.653L66.5454 228.714C66.2184 228.134 65.3503 228.132 64.606 228.711Z" fill="#3A556A"/>
<path id="Vector_18" d="M59.3701 232.186C58.6265 232.765 58.2893 233.704 58.6166 234.283L59.1474 235.223C59.4756 235.802 60.3442 235.801 61.0872 235.222C61.8289 234.644 62.1659 233.707 61.8403 233.128L61.3095 232.189C60.9822 231.609 60.1141 231.608 59.3701 232.186Z" fill="#3A556A"/>
<path id="Vector_19" d="M54.1324 235.662C53.3887 236.241 53.0511 237.179 53.3783 237.758L53.379 237.76L53.9098 238.7C54.2379 239.278 55.1066 239.277 55.8495 238.698C56.5913 238.12 56.9282 237.184 56.6026 236.605L56.0718 235.665C55.7448 235.085 54.8767 235.084 54.1324 235.662Z" fill="#3A556A"/>
<path id="Vector_20" d="M48.8978 239.135C48.154 239.714 47.8164 240.652 48.1436 241.232L48.1443 241.233L48.6751 242.173C49.0033 242.751 49.8719 242.751 50.6149 242.172C51.3566 241.594 51.6936 240.657 51.368 240.078L50.8372 239.138C50.5099 238.559 49.6417 238.557 48.8978 239.135Z" fill="#3A556A"/>
</g>
</g>
</g>
</g>
</g>
<defs>
<filter id="filter0_dddddd_0_1" x="-191.951" y="127.425" width="525.97" height="634.691" filterUnits="userSpaceOnUse" color-interpolation-filters="sRGB">
<feFlood flood-opacity="0" result="BackgroundImageFix"/>
<feColorMatrix in="SourceAlpha" type="matrix" values="0 0 0 0 0 0 0 0 0 0 0 0 0 0 0 0 0 0 127 0" result="hardAlpha"/>
<feOffset dy="2.46319"/>
<feGaussianBlur stdDeviation="2.09371"/>
<feColorMatrix type="matrix" values="0 0 0 0 0 0 0 0 0 0 0 0 0 0 0 0 0 0 0.01 0"/>
<feBlend mode="normal" in2="BackgroundImageFix" result="effect1_dropShadow_0_1"/>
<feColorMatrix in="SourceAlpha" type="matrix" values="0 0 0 0 0 0 0 0 0 0 0 0 0 0 0 0 0 0 127 0" result="hardAlpha"/>
<feOffset dy="10.838"/>
<feGaussianBlur stdDeviation="4.33521"/>
<feColorMatrix type="matrix" values="0 0 0 0 0 0 0 0 0 0 0 0 0 0 0 0 0 0 0.01 0"/>
<feBlend mode="normal" in2="effect1_dropShadow_0_1" result="effect2_dropShadow_0_1"/>
<feColorMatrix in="SourceAlpha" type="matrix" values="0 0 0 0 0 0 0 0 0 0 0 0 0 0 0 0 0 0 127 0" result="hardAlpha"/>
<feOffset dy="26.6024"/>
<feGaussianBlur stdDeviation="8.64579"/>
<feColorMatrix type="matrix" values="0 0 0 0 0 0 0 0 0 0 0 0 0 0 0 0 0 0 0.01 0"/>
<feBlend mode="normal" in2="effect2_dropShadow_0_1" result="effect3_dropShadow_0_1"/>
<feColorMatrix in="SourceAlpha" type="matrix" values="0 0 0 0 0 0 0 0 0 0 0 0 0 0 0 0 0 0 127 0" result="hardAlpha"/>
<feOffset dy="51.2343"/>
<feGaussianBlur stdDeviation="16.9467"/>
<feColorMatrix type="matrix" values="0 0 0 0 0 0 0 0 0 0 0 0 0 0 0 0 0 0 0.0121481 0"/>
<feBlend mode="normal" in2="effect3_dropShadow_0_1" result="effect4_dropShadow_0_1"/>
<feColorMatrix in="SourceAlpha" type="matrix" values="0 0 0 0 0 0 0 0 0 0 0 0 0 0 0 0 0 0 127 0" result="hardAlpha"/>
<feOffset dy="86.2116"/>
<feGaussianBlur stdDeviation="31.1593"/>
<feColorMatrix type="matrix" values="0 0 0 0 0 0 0 0 0 0 0 0 0 0 0 0 0 0 0.0151852 0"/>
<feBlend mode="normal" in2="effect4_dropShadow_0_1" result="effect5_dropShadow_0_1"/>
<feColorMatrix in="SourceAlpha" type="matrix" values="0 0 0 0 0 0 0 0 0 0 0 0 0 0 0 0 0 0 127 0" result="hardAlpha"/>
<feOffset dy="133.012"/>
<feGaussianBlur stdDeviation="53.2049"/>
<feColorMatrix type="matrix" values="0 0 0 0 0 0 0 0 0 0 0 0 0 0 0 0 0 0 0.02 0"/>
<feBlend mode="normal" in2="effect5_dropShadow_0_1" result="effect6_dropShadow_0_1"/>
<feBlend mode="normal" in="SourceGraphic" in2="effect6_dropShadow_0_1" result="shape"/>
</filter>
<clipPath id="clip0_0_1">
<rect width="1440" height="6406" fill="white" transform="translate(-484 -1112)"/>
</clipPath>
</defs>
</svg>
